#tb 0: 1/50
0,          0,          0,        1,   149760, 0x49bcac59
0,          1,          1,        1,   149760, 0x30ffadcd
0,          2,          2,        1,   149760, 0x85ccc14a
0,          3,          3,        1,   149760, 0x9e80bab5
0,          4,          4,        1,   149760, 0xf4d6b065
0,          5,          5,        1,   149760, 0x3dfea025
0,          6,          6,        1,   149760, 0x752381f4
0,          7,          7,        1,   149760, 0x55875176
0,          8,          8,        1,   149760, 0xaeeceea9
0,          9,          9,        1,   149760, 0xfa19792b
0,         10,         10,        1,   149760, 0x1f0cfa3c
0,         11,         11,        1,   149760, 0xecc09b1a
0,         12,         12,        1,   149760, 0x816e4e1b
0,         13,         13,        1,   149760, 0x375cef94
0,         14,         14,        1,   149760, 0xace1a0ff
0,         15,         15,        1,   149760, 0x85827658
0,         16,         16,        1,   149760, 0x8189237e
0,         17,         17,        1,   149760, 0xec53e171
0,         18,         18,        1,   149760, 0x0b1bad4a
0,         19,         19,        1,   149760, 0x9d566fd0
0,         20,         20,        1,   149760, 0x9b323c87
0,         21,         21,        1,   149760, 0x2d900cb7
0,         22,         22,        1,   149760, 0x7062ed06
0,         23,         23,        1,   149760, 0xe687c687
0,         24,         24,        1,   149760, 0x4767dd46
0,         25,         25,        1,   149760, 0xf0d04aae
0,         26,         26,        1,   149760, 0x1a9d0640
0,         27,         27,        1,   149760, 0xc831e356
0,         28,         28,        1,   149760, 0x3b5ee48b
0,         29,         29,        1,   149760, 0x083f94ec
0,         30,         30,        1,   149760, 0xfd92050f
0,         31,         31,        1,   149760, 0x23ce5764
0,         32,         32,        1,   149760, 0x98167d17
0,         33,         33,        1,   149760, 0x458a1e97
0,         34,         34,        1,   149760, 0x913fe090
0,         35,         35,        1,   149760, 0xdf87fb99
0,         36,         36,        1,   149760, 0x2c9ffb76
0,         37,         37,        1,   149760, 0xe52b1f88
0,         38,         38,        1,   149760, 0xeb6441b3
0,         39,         39,        1,   149760, 0x229a3428
0,         40,         40,        1,   149760, 0xab5dc58c
0,         41,         41,        1,   149760, 0xfdaff77d
0,         42,         42,        1,   149760, 0x120326dc
0,         43,         43,        1,   149760, 0x9a9ff8fd
0,         44,         44,        1,   149760, 0x4e5bb152
0,         45,         45,        1,   149760, 0x2d16f231
0,         46,         46,        1,   149760, 0x99a01d57
0,         47,         47,        1,   149760, 0x3a555c12
0,         48,         48,        1,   149760, 0x20ad0e79
0,         49,         49,        1,   149760, 0xc62724f2
0,         50,         50,        1,   149760, 0x07a81153
0,         51,         51,        1,   149760, 0x14b9732e
0,         52,         52,        1,   149760, 0xeefa0be1
0,         53,         53,        1,   149760, 0x95a82b9e
0,         54,         54,        1,   149760, 0xa6ecbed4
0,         55,         55,        1,   149760, 0xaaec0cf6
0,         56,         56,        1,   149760, 0x087815ca
0,         57,         57,        1,   149760, 0xff82b221
0,         58,         58,        1,   149760, 0x709afb9f
0,         59,         59,        1,   149760, 0xb91e712a
0,         60,         60,        1,   149760, 0x66dfbaaa
0,         61,         61,        1,   149760, 0x574501b2
0,         62,         62,        1,   149760, 0xe1c13daf
0,         63,         63,        1,   149760, 0xdab85ad6
0,         64,         64,        1,   149760, 0x57e8a455
0,         65,         65,        1,   149760, 0xfc95db86
0,         66,         66,        1,   149760, 0xe298f7ee
0,         67,         67,        1,   149760, 0x13302040
0,         68,         68,        1,   149760, 0x69811199
0,         69,         69,        1,   149760, 0x64f31874
0,         70,         70,        1,   149760, 0xc1450115
0,         71,         71,        1,   149760, 0xf0efc355
0,         72,         72,        1,   149760, 0xeaee572d
0,         73,         73,        1,   149760, 0xf256fc07
0,         74,         74,        1,   149760, 0x20d48047
0,         75,         75,        1,   149760, 0x37a934bf
0,         76,         76,        1,   149760, 0xd14bcc48
0,         77,         77,        1,   149760, 0x3de67683
0,         78,         78,        1,   149760, 0x3b3b2edd
0,         79,         79,        1,   149760, 0x8cf00f8d
0,         80,         80,        1,   149760, 0x83d8ddff
0,         81,         81,        1,   149760, 0xf2f36ae4
0,         82,         82,        1,   149760, 0xf2549f1a
0,         83,         83,        1,   149760, 0x6c5a9443
0,         84,         84,        1,   149760, 0x071e4d64
0,         85,         85,        1,   149760, 0x0b160074
0,         86,         86,        1,   149760, 0x0ebdf969
0,         87,         87,        1,   149760, 0x0331793d
0,         88,         88,        1,   149760, 0xee7ad61f
0,         89,         89,        1,   149760, 0xb9ba083f
0,         90,         90,        1,   149760, 0x8ecf1f9d
0,         91,         91,        1,   149760, 0x6e861158
0,         92,         92,        1,   149760, 0x977a203b
0,         93,         93,        1,   149760, 0xa25d1077
0,         94,         94,        1,   149760, 0xa4d2fca1
0,         95,         95,        1,   149760, 0x6093084d
